<svg width="229" height="60" viewBox="0 0 229 60" fill="none" xmlns="http://www.w3.org/2000/svg">
<g clip-path="url(#clip0_10_13)">
<path d="M71.0348 43.6052C71.0348 47.1615 70.2307 50.0326 68.6224 52.2186C67.0141 54.3719 64.9135 56.0196 62.3206 57.1615C59.7277 58.2708 56.9214 59.0212 53.9018 59.4127C50.915 59.8042 48.043 60 45.286 60C40.9562 60 33.4599 59.9915 25.8311 59.9915C25.8312 59.7351 43.4654 52.8099 43.4654 52.8099L45.286 36.1175L36.7593 28.2645L38.2457 25.2893L43.4654 16.0522L39.9882 5.20661L34.524 1.98347C34.524 1.98347 25.831 0.635827 25.8311 2.37517e-05C28.2703 -1.84358e-05 39.7064 8.43106e-06 42.8243 8.43106e-06C45.5814 8.43106e-06 48.4369 0.195767 51.3909 0.587284C54.3777 0.978801 57.1511 1.72921 59.7112 2.83851C62.3042 3.91518 64.3884 5.51387 65.9638 7.63459C67.5721 9.75531 68.3762 12.5612 68.3762 16.0522C68.3762 19.4127 67.3095 22.2349 65.1761 24.5188C63.0427 26.77 60.4497 28.385 57.3973 29.3638C61.4016 30.0489 64.6674 31.5171 67.1946 33.7684C69.7547 36.0196 71.0348 39.2985 71.0348 43.6052ZM58.9235 15.6117C58.9235 12.4796 58.0701 10 56.3634 8.17293C54.6895 6.31322 52.556 4.99185 49.9631 4.20882C47.403 3.39316 44.7937 2.98533 42.1351 2.98533C40.7566 2.98533 41.3667 2.85482 39.9882 2.98533L48.6812 13.3884C48.6812 13.3884 36.8343 27.3899 38.2457 27.4551C39.6899 27.4878 41.1012 27.5041 42.4797 27.5041C45.2696 27.5041 47.9118 27.1941 50.4062 26.5742C52.9007 25.9217 54.9356 24.7308 56.5111 23.0016C58.1194 21.2724 58.9235 18.8091 58.9235 15.6117ZM60.7451 44.2414C60.7451 40.783 59.7769 38.075 57.8404 36.1175C55.9367 34.1272 53.5407 32.7243 50.6524 31.9087C47.7641 31.0604 44.8429 30.6362 41.8889 30.6362C40.6417 30.6362 44.2876 31.9492 45.7008 32.9752C47.0366 33.9451 48.9296 35.7025 48.9296 35.7025L50.6524 41.6529L42.4797 56.281C42.4797 56.281 42.5289 56.8679 44.3013 56.8679C46.9599 56.8679 49.5528 56.46 52.0801 55.6444C54.6074 54.8287 56.6752 53.491 58.2835 51.6313C59.9246 49.7716 60.7451 47.3083 60.7451 44.2414Z" fill="url(#paint0_linear_10_13)"/>
<path d="M54.6421 43.6052C54.6421 46.8679 53.8886 49.5759 52.3817 51.7292C50.9076 53.8499 48.942 55.5139 46.4851 56.721C44.0609 57.9282 41.3911 58.7765 38.4755 59.2659C35.5927 59.7553 32.759 60 29.9745 60H0V57.6998C2.45693 57.6998 4.29143 57.4551 5.50352 56.9657C6.74836 56.4763 7.56734 55.6117 7.96045 54.3719C8.35356 53.0995 8.55011 51.3051 8.55011 48.9886V11.0114C8.55011 8.66232 8.35356 6.85155 7.96045 5.57912C7.6001 4.30669 6.81388 3.42577 5.6018 2.93638C4.38971 2.44698 2.52245 2.20228 0 2.20228V0H28.5004C32.4642 0 36.2315 0.50571 39.8022 1.51713C43.373 2.49592 46.2722 4.11093 48.4998 6.36215C50.7601 8.61338 51.8903 11.615 51.8903 15.367C51.8903 18.6297 50.9076 21.4192 48.942 23.7357C47.0092 26.0522 43.979 27.7814 39.8514 28.9233C44.5032 29.8042 48.123 31.4356 50.711 33.8173C53.3317 36.1664 54.6421 39.429 54.6421 43.6052ZM40.6376 15.4649C40.6376 12.6591 39.9497 10.4078 38.5738 8.71126C37.1979 6.98206 35.347 5.72594 33.0211 4.9429C30.6952 4.15987 28.1236 3.76835 25.3064 3.76835C22.9805 3.76835 20.8511 3.99674 18.9183 4.45351V26.6721C19.9339 26.8679 20.9985 26.9984 22.1124 27.0636C23.2589 27.0962 24.3891 27.1126 25.5029 27.1126C28.3202 27.1126 30.859 26.7537 33.1194 26.0359C35.4125 25.2855 37.2307 24.062 38.5738 22.3654C39.9497 20.6362 40.6376 18.3361 40.6376 15.4649ZM42.554 44.1925C42.554 40.8646 41.7186 38.2382 40.0479 36.3132C38.41 34.3556 36.2479 32.9527 33.5616 32.1044C30.9082 31.2235 28.0909 30.783 25.1098 30.783C24.0615 30.783 22.9968 30.7993 21.9158 30.832C20.8675 30.8646 19.8684 30.9462 18.9183 31.0767V53.5889C20.0649 54.5677 21.3261 55.2529 22.702 55.6444C24.1107 56.0033 25.6831 56.1827 27.4193 56.1827C29.8107 56.1827 32.1694 55.8238 34.4953 55.106C36.8212 54.3556 38.7376 53.1158 40.2445 51.3866C41.7842 49.6248 42.554 47.2268 42.554 44.1925Z" fill="white"/>
<path d="M107.79 26.5037C107.79 27.6723 107.523 28.6421 106.989 29.4134C106.467 30.1729 105.77 30.7688 104.899 31.2012C104.04 31.6336 103.093 31.9374 102.06 32.1126C101.038 32.2879 100.033 32.3756 99.0463 32.3756H88.4209V31.5518C89.2918 31.5518 89.9421 31.4641 90.3718 31.2888C90.8131 31.1136 91.1034 30.8039 91.2427 30.3599C91.3821 29.9041 91.4517 29.2615 91.4517 28.4318V14.8302C91.4517 13.9889 91.3821 13.3404 91.2427 12.8846C91.115 12.4289 90.8363 12.1134 90.4066 11.9381C89.977 11.7629 89.3151 11.6752 88.4209 11.6752V10.8865H98.5237C99.9288 10.8865 101.264 11.0676 102.53 11.4298C103.796 11.7804 104.823 12.3588 105.613 13.1651C106.414 13.9714 106.815 15.0464 106.815 16.3902C106.815 17.5587 106.467 18.5578 105.77 19.3875C105.085 20.2171 104.011 20.8364 102.547 21.2454C104.196 21.5609 105.48 22.1452 106.397 22.9982C107.326 23.8395 107.79 25.008 107.79 26.5037ZM102.826 16.4253C102.826 15.4203 102.582 14.6141 102.095 14.0064C101.607 13.3871 100.951 12.9372 100.126 12.6568C99.3018 12.3763 98.3902 12.2361 97.3915 12.2361C96.567 12.2361 95.8122 12.3179 95.1271 12.4815V20.4391C95.4871 20.5092 95.8645 20.556 96.2593 20.5794C96.6657 20.591 97.0664 20.5969 97.4612 20.5969C98.4599 20.5969 99.3598 20.4683 100.161 20.2113C100.974 19.9425 101.618 19.5043 102.095 18.8967C102.582 18.2774 102.826 17.4536 102.826 16.4253ZM103.505 26.7141C103.505 25.5222 103.209 24.5815 102.617 23.8921C102.036 23.191 101.27 22.6885 100.318 22.3847C99.3772 22.0692 98.3786 21.9115 97.3218 21.9115C96.9502 21.9115 96.5728 21.9173 96.1896 21.929C95.818 21.9407 95.4638 21.9699 95.1271 22.0166V30.0794C95.5335 30.43 95.9806 30.6754 96.4683 30.8156C96.9677 30.9441 97.5251 31.0084 98.1405 31.0084C98.9882 31.0084 99.8243 30.8799 100.649 30.6228C101.473 30.354 102.153 29.91 102.687 29.2907C103.233 28.6597 103.505 27.8008 103.505 26.7141Z" fill="white"/>
<path d="M129.684 26.7141L127.699 32.3756H111.133V31.5518C112.016 31.5518 112.672 31.4641 113.102 31.2888C113.531 31.1136 113.816 30.7922 113.955 30.3248C114.095 29.8574 114.164 29.1855 114.164 28.3091V14.8828C114.164 13.9831 114.1 13.3053 113.973 12.8496C113.845 12.3939 113.566 12.0842 113.137 11.9206C112.719 11.757 112.051 11.6752 111.133 11.6752V10.8865H127.768L128.012 15.9345H127.228C126.984 15.0114 126.746 14.2869 126.514 13.761C126.282 13.2235 125.91 12.8437 125.399 12.6217C124.9 12.388 124.122 12.2712 123.065 12.2712H117.805V20.5268H121.567C122.438 20.5268 123.094 20.4274 123.536 20.2288C123.988 20.0185 124.308 19.6737 124.494 19.1947C124.691 18.7039 124.848 18.0437 124.964 17.214H125.765V25.2067H124.964C124.848 24.3654 124.697 23.711 124.511 23.2436C124.325 22.7645 124.012 22.4315 123.57 22.2445C123.129 22.0458 122.461 21.9465 121.567 21.9465H117.805V28.5194C117.805 29.3491 117.886 29.9743 118.049 30.3949C118.211 30.8039 118.728 31.0084 119.599 31.0084H122.56C123.803 31.0084 124.772 30.8623 125.469 30.5702C126.166 30.2781 126.752 29.8165 127.228 29.1855C127.704 28.5545 128.227 27.7307 128.796 26.7141H129.684Z" fill="white"/>
<path d="M148.443 26.679C148.443 27.941 148.118 29.0394 147.467 29.9743C146.829 30.8974 145.975 31.616 144.907 32.1302C143.85 32.6326 142.706 32.8839 141.475 32.8839C140.616 32.8839 139.844 32.7787 139.159 32.5684C138.485 32.358 137.887 32.1477 137.365 31.9374C136.842 31.727 136.389 31.6219 136.006 31.6219C135.634 31.6219 135.361 31.7562 135.187 32.025C135.025 32.2821 134.897 32.5684 134.804 32.8839H134.038V25.2242H134.839C134.967 26.3694 135.286 27.421 135.797 28.3792C136.319 29.3374 137.034 30.1086 137.939 30.6929C138.857 31.2655 139.966 31.5518 141.266 31.5518C141.94 31.5518 142.579 31.4232 143.182 31.1661C143.798 30.9091 144.297 30.5351 144.68 30.0444C145.075 29.5419 145.273 28.9226 145.273 28.1864C145.273 27.3568 145 26.6381 144.454 26.0305C143.92 25.4112 143.223 24.8444 142.364 24.3303C141.504 23.8162 140.593 23.3078 139.629 22.8054C138.677 22.2912 137.771 21.7362 136.912 21.1402C136.064 20.5326 135.367 19.8315 134.821 19.0369C134.276 18.2423 134.003 17.3017 134.003 16.2149C134.003 15.023 134.287 13.9947 134.856 13.13C135.437 12.2653 136.209 11.5993 137.173 11.1319C138.137 10.6528 139.199 10.4132 140.361 10.4132C141.104 10.4132 141.789 10.5242 142.416 10.7463C143.043 10.9566 143.6 11.1669 144.088 11.3773C144.588 11.5876 145.006 11.6928 145.342 11.6928C145.656 11.6928 145.882 11.5525 146.022 11.2721C146.173 10.9916 146.283 10.7054 146.353 10.4132H147.154V18.0203H146.318C146.202 16.8284 145.888 15.765 145.377 14.8302C144.866 13.8837 144.187 13.1359 143.339 12.5867C142.491 12.0375 141.516 11.7629 140.413 11.7629C139.507 11.7629 138.688 12.0492 137.957 12.6217C137.225 13.1826 136.859 13.9363 136.859 14.8828C136.859 15.654 137.138 16.3318 137.696 16.916C138.253 17.4886 138.973 18.0261 139.855 18.5286C140.738 19.0194 141.667 19.516 142.642 20.0185C143.63 20.5092 144.564 21.0584 145.447 21.6661C146.329 22.2737 147.049 22.9865 147.607 23.8045C148.164 24.6107 148.443 25.5689 148.443 26.679Z" fill="white"/>
<path d="M170.912 16.3902H170.023C169.895 15.0698 169.501 14.0765 168.839 13.4105C168.177 12.7327 167.172 12.3939 165.825 12.3939H163.369V28.537C163.369 29.3666 163.439 29.9976 163.578 30.43C163.718 30.8623 164.002 31.1603 164.432 31.3239C164.861 31.4758 165.518 31.5518 166.4 31.5518V32.3756H156.681V31.5518C157.551 31.5518 158.202 31.47 158.631 31.3064C159.061 31.1428 159.346 30.8448 159.485 30.4124C159.624 29.9801 159.694 29.3549 159.694 28.537V12.3939H157.447C156.065 12.3939 155.026 12.6802 154.329 13.2527C153.632 13.8253 153.226 14.8711 153.11 16.3902H152.186L152.396 10.8865H170.703L170.912 16.3902Z" fill="white"/>
<path d="M107.79 52.6106C107.79 53.7791 107.523 54.749 106.989 55.5202C106.467 56.2798 105.77 56.8757 104.899 57.3081C104.04 57.7404 103.093 58.0442 102.06 58.2195C101.038 58.3948 100.033 58.4824 99.0463 58.4824H88.4209V57.6586C89.2918 57.6586 89.9421 57.571 90.3718 57.3957C90.8131 57.2204 91.1034 56.9108 91.2427 56.4667C91.3821 56.011 91.4517 55.3683 91.4517 54.5387V40.9371C91.4517 40.0958 91.3821 39.4472 91.2427 38.9915C91.115 38.5358 90.8363 38.2203 90.4066 38.045C89.977 37.8697 89.3151 37.7821 88.4209 37.7821V36.9933H98.5237C99.9288 36.9933 101.264 37.1745 102.53 37.5367C103.796 37.8873 104.823 38.4657 105.613 39.272C106.414 40.0782 106.815 41.1533 106.815 42.4971C106.815 43.6656 106.467 44.6647 105.77 45.4943C105.085 46.324 104.011 46.9433 102.547 47.3523C104.196 47.6678 105.48 48.252 106.397 49.1051C107.326 49.9464 107.79 51.1149 107.79 52.6106ZM102.826 42.5321C102.826 41.5272 102.582 40.7209 102.095 40.1133C101.607 39.494 100.951 39.0441 100.126 38.7637C99.3018 38.4832 98.3902 38.343 97.3915 38.343C96.567 38.343 95.8122 38.4248 95.1271 38.5884V46.546C95.4871 46.6161 95.8645 46.6628 96.2593 46.6862C96.6657 46.6979 97.0664 46.7037 97.4612 46.7037C98.4599 46.7037 99.3598 46.5752 100.161 46.3181C100.974 46.0494 101.618 45.6112 102.095 45.0036C102.582 44.3842 102.826 43.5604 102.826 42.5321ZM103.505 52.8209C103.505 51.6291 103.209 50.6884 102.617 49.999C102.036 49.2979 101.27 48.7954 100.318 48.4916C99.3772 48.1761 98.3786 48.0183 97.3218 48.0183C96.9502 48.0183 96.5728 48.0242 96.1896 48.0359C95.818 48.0475 95.4638 48.0768 95.1271 48.1235V56.1863C95.5335 56.5368 95.9806 56.7822 96.4683 56.9225C96.9677 57.051 97.5251 57.1153 98.1405 57.1153C98.9882 57.1153 99.8243 56.9867 100.649 56.7297C101.473 56.4609 102.153 56.0169 102.687 55.3975C103.233 54.7665 103.505 53.9077 103.505 52.8209Z" fill="url(#paint1_linear_10_13)"/>
<path d="M133.238 58.4824H126.619L119.477 48.5617C119.175 48.5967 118.85 48.6143 118.502 48.6143C118.351 48.6143 118.2 48.6084 118.049 48.5967C117.909 48.5851 117.776 48.5792 117.648 48.5792V54.6088C117.648 55.4151 117.724 56.0402 117.874 56.4843C118.025 56.9283 118.316 57.238 118.745 57.4132C119.187 57.5768 119.849 57.6586 120.731 57.6586V58.4824H111.012V57.6586C111.906 57.6586 112.562 57.5768 112.98 57.4132C113.409 57.238 113.688 56.9283 113.816 56.4843C113.944 56.0285 114.008 55.3859 114.008 54.5562V40.7793C114.008 39.9614 113.944 39.3362 113.816 38.9039C113.688 38.4715 113.409 38.1794 112.98 38.0275C112.562 37.8639 111.906 37.7821 111.012 37.7821V36.9933H119.32C120.354 36.9933 121.393 37.0518 122.438 37.1686C123.495 37.2855 124.465 37.5309 125.347 37.9048C126.23 38.267 126.938 38.8162 127.472 39.5524C128.018 40.2886 128.291 41.2701 128.291 42.4971C128.291 44.1681 127.821 45.4476 126.88 46.3357C125.939 47.2121 124.778 47.7963 123.396 48.0884L127.838 54.0654C128.697 55.1872 129.504 56.0461 130.259 56.642C131.014 57.2263 132.007 57.5651 133.238 57.6586V58.4824ZM124.215 42.7775C124.215 41.5272 123.861 40.4872 123.152 39.6576C122.456 38.8279 121.352 38.4131 119.843 38.4131C119.448 38.4131 119.065 38.4365 118.693 38.4832C118.333 38.5299 117.985 38.5767 117.648 38.6234V47.2121C117.938 47.2588 118.333 47.2822 118.833 47.2822C119.727 47.2822 120.58 47.1303 121.393 46.8264C122.218 46.5226 122.891 46.0435 123.414 45.3892C123.948 44.7231 124.215 43.8526 124.215 42.7775Z" fill="url(#paint2_linear_10_13)"/>
<path d="M156.595 47.6678C156.595 49.1869 156.345 50.63 155.846 51.9971C155.346 53.3526 154.621 54.5562 153.668 55.6079C152.728 56.6595 151.596 57.4892 150.272 58.0968C148.96 58.7044 147.479 59.0083 145.83 59.0083C143.635 59.0083 141.731 58.4941 140.117 57.4658C138.514 56.4258 137.272 55.047 136.389 53.3293C135.518 51.6115 135.083 49.7302 135.083 47.6853C135.083 45.617 135.547 43.7415 136.476 42.0589C137.405 40.3645 138.688 39.0207 140.326 38.0275C141.975 37.0226 143.862 36.5201 145.987 36.5201C147.601 36.5201 149.058 36.8181 150.359 37.414C151.671 37.9983 152.792 38.8104 153.721 39.8504C154.65 40.8787 155.358 42.0647 155.846 43.4085C156.345 44.7406 156.595 46.1604 156.595 47.6678ZM152.31 47.8431C152.31 46.6979 152.217 45.5352 152.031 44.355C151.845 43.1748 151.514 42.0939 151.038 41.1124C150.574 40.1191 149.912 39.3187 149.053 38.7111C148.193 38.1034 147.096 37.7996 145.76 37.7996C144.495 37.7996 143.45 38.1034 142.625 38.7111C141.801 39.3187 141.15 40.1133 140.674 41.0948C140.21 42.0764 139.879 43.1398 139.681 44.2849C139.484 45.4184 139.385 46.5226 139.385 47.5977C139.385 48.626 139.484 49.7244 139.681 50.8929C139.879 52.0497 140.215 53.1423 140.692 54.1706C141.168 55.1989 141.818 56.0402 142.642 56.6946C143.479 57.349 144.524 57.6762 145.778 57.6762C147.09 57.6762 148.17 57.3782 149.018 56.7822C149.865 56.1746 150.527 55.3859 151.003 54.416C151.491 53.4344 151.828 52.3711 152.014 51.2259C152.211 50.0691 152.31 48.9415 152.31 47.8431Z" fill="url(#paint3_linear_10_13)"/>
<path d="M183.453 58.4824H172.741V57.6586C173.17 57.6586 173.565 57.5885 173.925 57.4483C174.285 57.2964 174.465 57.0218 174.465 56.6245C174.465 56.4142 174.349 56.1512 174.117 55.8357C173.896 55.5085 173.693 55.2573 173.507 55.082L167.323 48.7545L166.505 49.5433V54.5387C166.505 55.3683 166.569 56.011 166.696 56.4667C166.836 56.9108 167.108 57.2204 167.515 57.3957C167.933 57.571 168.56 57.6586 169.396 57.6586V58.4824H159.833V57.6586C160.727 57.6586 161.384 57.571 161.802 57.3957C162.231 57.2204 162.51 56.9108 162.638 56.4667C162.765 56.011 162.829 55.3683 162.829 54.5387V40.9371C162.829 40.1074 162.765 39.4648 162.638 39.009C162.51 38.5533 162.231 38.2378 161.802 38.0625C161.384 37.8756 160.727 37.7821 159.833 37.7821V36.9933H169.361V37.7821C168.548 37.7821 167.939 37.8756 167.532 38.0625C167.126 38.2378 166.853 38.5533 166.714 39.009C166.574 39.4648 166.505 40.1074 166.505 40.9371V47.1244C167.468 46.213 168.409 45.319 169.326 44.4427C170.255 43.5663 171.097 42.7483 171.852 41.9888C172.607 41.2292 173.211 40.5632 173.664 39.9906C174.117 39.418 174.343 38.9857 174.343 38.6935C174.343 38.2729 174.157 38.0158 173.786 37.9223C173.426 37.8288 172.95 37.7821 172.357 37.7821V36.9933H180.596V37.7821C179.888 37.7821 179.232 37.9223 178.628 38.2028C178.036 38.4715 177.391 38.9214 176.695 39.5524C175.998 40.1717 175.133 40.9955 174.099 42.0238L169.849 46.3707L177.879 54.4861C178.808 55.4326 179.702 56.1804 180.562 56.7297C181.421 57.2672 182.385 57.5768 183.453 57.6586V58.4824Z" fill="url(#paint4_linear_10_13)"/>
<path d="M203.814 52.8209L201.828 58.4824H185.263V57.6586C186.146 57.6586 186.802 57.571 187.231 57.3957C187.661 57.2204 187.946 56.8991 188.085 56.4317C188.224 55.9643 188.294 55.2924 188.294 54.416V40.9897C188.294 40.0899 188.23 39.4122 188.102 38.9565C187.975 38.5007 187.696 38.1911 187.266 38.0275C186.848 37.8639 186.181 37.7821 185.263 37.7821V36.9933H201.898L202.142 42.0414H201.358C201.114 41.1182 200.876 40.3937 200.644 39.8679C200.412 39.3304 200.04 38.9506 199.529 38.7286C199.03 38.4949 198.252 38.378 197.195 38.378H191.935V46.6336H195.697C196.568 46.6336 197.224 46.5343 197.665 46.3357C198.118 46.1253 198.437 45.7806 198.623 45.3015C198.821 44.8107 198.977 44.1505 199.094 43.3209H199.895V51.3136H199.094C198.977 50.4722 198.827 49.8179 198.641 49.3504C198.455 48.8714 198.141 48.5383 197.7 48.3514C197.259 48.1527 196.591 48.0534 195.697 48.0534H191.935V54.6263C191.935 55.456 192.016 56.0811 192.178 56.5018C192.341 56.9108 192.858 57.1153 193.729 57.1153H196.69C197.932 57.1153 198.902 56.9692 199.599 56.6771C200.295 56.3849 200.882 55.9234 201.358 55.2924C201.834 54.6614 202.357 53.8376 202.926 52.8209H203.814Z" fill="url(#paint5_linear_10_13)"/>
<path d="M229 58.4824H222.381L215.239 48.5617C214.937 48.5967 214.612 48.6143 214.264 48.6143C214.113 48.6143 213.962 48.6084 213.811 48.5967C213.672 48.5851 213.538 48.5792 213.41 48.5792V54.6088C213.41 55.4151 213.486 56.0402 213.637 56.4843C213.788 56.9283 214.078 57.238 214.508 57.4132C214.949 57.5768 215.611 57.6586 216.493 57.6586V58.4824H206.774V57.6586C207.668 57.6586 208.324 57.5768 208.742 57.4132C209.172 57.238 209.451 56.9283 209.578 56.4843C209.706 56.0285 209.77 55.3859 209.77 54.5562V40.7793C209.77 39.9614 209.706 39.3362 209.578 38.9039C209.451 38.4715 209.172 38.1794 208.742 38.0275C208.324 37.8639 207.668 37.7821 206.774 37.7821V36.9933H215.083C216.116 36.9933 217.155 37.0518 218.2 37.1686C219.257 37.2855 220.227 37.5309 221.109 37.9048C221.992 38.267 222.7 38.8162 223.234 39.5524C223.78 40.2886 224.053 41.2701 224.053 42.4971C224.053 44.1681 223.583 45.4476 222.642 46.3357C221.702 47.2121 220.54 47.7963 219.159 48.0884L223.6 54.0654C224.46 55.1872 225.267 56.0461 226.021 56.642C226.776 57.2263 227.769 57.5651 229 57.6586V58.4824ZM219.977 42.7775C219.977 41.5272 219.623 40.4872 218.915 39.6576C218.218 38.8279 217.115 38.4131 215.605 38.4131C215.21 38.4131 214.827 38.4365 214.455 38.4832C214.095 38.5299 213.747 38.5767 213.41 38.6234V47.2121C213.701 47.2588 214.095 47.2822 214.595 47.2822C215.489 47.2822 216.342 47.1303 217.155 46.8264C217.98 46.5226 218.653 46.0435 219.176 45.3892C219.71 44.7231 219.977 43.8526 219.977 42.7775Z" fill="url(#paint6_linear_10_13)"/>
</g>
<defs>
<linearGradient id="paint0_linear_10_13" x1="61.6089" y1="3.23317" x2="30.1848" y2="59.9732" gradientUnits="userSpaceOnUse">
<stop stop-color="#F0BB2B"/>
<stop offset="1" stop-color="#C67E15"/>
</linearGradient>
<linearGradient id="paint1_linear_10_13" x1="199.687" y1="13.0318" x2="191.202" y2="71.8582" gradientUnits="userSpaceOnUse">
<stop stop-color="#F0BB2B"/>
<stop offset="1" stop-color="#C67E15"/>
</linearGradient>
<linearGradient id="paint2_linear_10_13" x1="199.687" y1="13.0318" x2="191.202" y2="71.8582" gradientUnits="userSpaceOnUse">
<stop stop-color="#F0BB2B"/>
<stop offset="1" stop-color="#C67E15"/>
</linearGradient>
<linearGradient id="paint3_linear_10_13" x1="199.687" y1="13.0318" x2="191.202" y2="71.8582" gradientUnits="userSpaceOnUse">
<stop stop-color="#F0BB2B"/>
<stop offset="1" stop-color="#C67E15"/>
</linearGradient>
<linearGradient id="paint4_linear_10_13" x1="199.687" y1="13.0318" x2="191.202" y2="71.8582" gradientUnits="userSpaceOnUse">
<stop stop-color="#F0BB2B"/>
<stop offset="1" stop-color="#C67E15"/>
</linearGradient>
<linearGradient id="paint5_linear_10_13" x1="199.687" y1="13.0318" x2="191.202" y2="71.8582" gradientUnits="userSpaceOnUse">
<stop stop-color="#F0BB2B"/>
<stop offset="1" stop-color="#C67E15"/>
</linearGradient>
<linearGradient id="paint6_linear_10_13" x1="199.687" y1="13.0318" x2="191.202" y2="71.8582" gradientUnits="userSpaceOnUse">
<stop stop-color="#F0BB2B"/>
<stop offset="1" stop-color="#C67E15"/>
</linearGradient>
<clipPath id="clip0_10_13">
<rect width="229" height="60" fill="white"/>
</clipPath>
</defs>
</svg>
